<?xml version="1.0" encoding="UTF-8"?>
<svg id="uuid-72cca534-d79f-4c55-9d27-7cdd39dc00f1" data-name="Layer 1" xmlns="http://www.w3.org/2000/svg" viewBox="0 0 492.98 331.28">
  <g>
    <path d="M476.59,112.78c-5.62-37.44-30.32-65.18-56.99-76.79-26.67-11.61-55.32-10.02-83.28-8.31-64.01,3.91-128.03,7.82-192.04,11.73-24.19,1.48-48.67,3.14-72.18,11.7-15.54,5.66-30.85,14.58-43.08,29.15-14.44,17.2-20.3,38.75-24.86,63.48C1.75,156.84,.02,170.28,0,183.84c-.03,23.85,5.97,48.89,19.67,63.68,8.98,9.69,20.37,14.16,31.63,16.94,15.28,3.78,30.78,4.84,46.32,4.7,.04,19.14-1.22,38.24-3.85,57.14-.4,2.87,1.93,6.48,4.09,4.31,17.85-17.96,33.43-39.56,46.21-64.05,62.08-4.58,124.17-9.16,186.25-13.74,33.99-2.51,69.18-5.45,99.31-27.07,30.13-21.61,53.79-67.45,46.96-112.98Z" style="fill: #015c4b;"/>
    <path d="M491.07,96.4c-.89,0-1.68-.85-1.87-2.08-5.22-34.79-28.35-65.88-58.94-79.2-28.2-12.28-58.27-10.45-87.35-8.67l-202.96,12.39c-1.05,.03-1.94-1.05-1.99-2.49-.05-1.44,.77-2.65,1.82-2.72L342.75,1.25c28.04-1.71,59.83-3.65,88.68,8.91,38.69,16.85,57.15,53.98,61.52,83.12,.21,1.41-.45,2.79-1.49,3.08-.13,.04-.26,.05-.38,.05Z" style="fill: #015c4b;"/>
  </g>
  <text transform="translate(78.13 183.5) rotate(-4)" style="fill: #fff; font-family: XKoodak, &apos;X Koodak&apos;; font-size: 120px;"><tspan x="0" y="0">RASA</tspan></text>
</svg>